<svg width="46" height="46" viewBox="0 0 46 46" fill="none" xmlns="http://www.w3.org/2000/svg" xmlns:xlink="http://www.w3.org/1999/xlink">
<path d="M28.738,23L44.799,6.939C45.562,6.178 45.99,5.145 45.991,4.068C45.992,2.991 45.565,1.958 44.804,1.196C44.044,0.433 43.011,0.005 41.934,0.004C40.857,0.003 39.824,0.43 39.061,1.19L23,17.252L6.939,1.19C6.176,0.428 5.143,0 4.065,0C2.987,0 1.953,0.428 1.191,1.19C0.428,1.953 0,2.987 0,4.065C0,5.143 0.428,6.176 1.191,6.939L17.252,23L1.191,39.061C0.428,39.824 0,40.857 0,41.935C0,43.013 0.428,44.047 1.191,44.81C1.953,45.572 2.987,46 4.065,46C5.143,46 6.176,45.572 6.939,44.81L23,28.748L39.061,44.81C39.824,45.572 40.857,46 41.935,46C43.013,46 44.047,45.572 44.81,44.81C45.572,44.047 46,43.013 46,41.935C46,40.857 45.572,39.824 44.81,39.061L28.738,23Z" fill="#000000"/>
</svg>
